<?xml version="1.0" standalone="no"?>
<!DOCTYPE svg PUBLIC "-//W3C//DTD SVG 20010904//EN"
 "http://www.w3.org/TR/2001/REC-SVG-20010904/DTD/svg10.dtd">
<svg version="1.0" xmlns="http://www.w3.org/2000/svg"
 width="700.000000pt" height="700.000000pt" viewBox="0 0 700.000000 700.000000"
 preserveAspectRatio="xMidYMid meet">
<metadata>
Created by potrace 1.11, written by Peter Selinger 2001-2013
</metadata>
<g transform="translate(0.000000,700.000000) scale(0.100000,-0.100000)"
fill="#000000" stroke="none">
<path d="M3060 6610 c-175 -31 -255 -49 -385 -86 -420 -120 -793 -313 -1145
-593 -100 -79 -346 -318 -421 -410 -24 -29 -48 -59 -54 -65 -5 -6 -23 -29 -40
-51 l-29 -39 -1 -204 0 -205 -176 -96 c-193 -105 -173 -86 -232 -219 -88 -200
-168 -490 -203 -727 -3 -22 -7 -51 -10 -65 -19 -113 -26 -560 -11 -741 8 -104
29 -267 42 -329 3 -14 10 -51 15 -82 22 -121 112 -405 154 -485 14 -28 63 -60
238 -157 l47 -26 63 35 c35 20 70 40 78 46 8 5 67 39 130 75 63 37 183 106
265 154 170 98 475 274 520 300 157 90 851 494 855 497 3 3 5 166 5 364 1 358
1 358 -20 345 -56 -36 -313 -176 -323 -176 -7 0 -29 11 -50 23 -36 23 -82 50
-193 111 -113 63 -102 36 -103 256 -1 115 3 198 9 205 13 16 326 198 340 198
15 0 328 -182 340 -197 6 -8 9 -89 9 -205 -1 -105 1 -191 5 -191 5 0 73 38
152 84 79 45 214 124 299 173 l155 90 0 1127 0 1127 -75 40 c-41 22 -103 56
-138 75 -34 19 -64 33 -65 33 -1 -1 -22 -5 -47 -9z"/>
<path d="M3665 6546 l-130 -74 0 -1127 0 -1127 300 -174 c165 -95 304 -175
310 -177 6 -2 10 -141 11 -365 0 -200 3 -364 5 -366 3 -2 451 -262 564 -326
17 -9 73 -42 125 -72 126 -73 835 -482 1074 -619 104 -60 193 -109 198 -109 6
0 47 20 91 44 45 25 111 60 145 79 71 38 72 40 138 215 70 185 132 417 158
590 3 15 7 45 11 67 21 139 29 269 29 450 0 150 -9 331 -19 379 -2 12 -7 41
-10 66 -11 98 -59 312 -97 435 -58 190 -167 455 -186 455 -5 0 -66 32 -136 70
-69 39 -129 70 -131 70 -3 0 -23 11 -44 24 l-39 25 4 202 4 202 -78 96 c-256
316 -610 602 -992 802 -339 178 -780 310 -1110 334 l-65 4 -130 -73z m1055
-2200 l135 -78 0 -203 c0 -112 -2 -205 -5 -207 -18 -15 -334 -188 -342 -188
-12 0 -315 167 -338 186 -14 12 -17 105 -11 385 1 24 18 37 154 114 83 48 161
94 171 101 22 15 1 25 236 -110z"/>
<path d="M2775 2970 c-33 -20 -80 -48 -105 -62 -78 -44 -344 -197 -360 -207
-8 -5 -80 -47 -159 -93 -79 -46 -165 -95 -190 -110 -25 -15 -57 -33 -71 -41
-28 -15 -424 -244 -760 -439 l-215 -125 -1 -151 -1 -151 54 -68 c329 -415 863
-807 1383 -1015 207 -83 471 -161 620 -184 47 -7 98 -15 117 -19 15 -4 74 25
190 91 92 53 175 96 184 96 12 0 228 -121 289 -162 46 -31 119 -36 235 -15 17
3 68 13 115 21 282 50 654 177 875 298 33 19 80 45 105 58 336 185 679 478
933 796 l58 73 -6 142 c-4 78 -7 149 -7 158 0 10 -119 85 -355 220 -195 112
-378 218 -407 234 -29 17 -106 61 -172 98 -65 37 -126 72 -134 78 -27 17 -454
262 -490 281 -19 10 -42 23 -50 28 -8 6 -93 55 -189 110 l-173 100 -67 -39
c-36 -21 -91 -52 -121 -68 -30 -17 -142 -79 -248 -138 l-193 -108 73 -39 c40
-22 102 -56 138 -76 36 -19 81 -44 101 -55 l36 -19 -1 -205 -1 -204 -167 -95
c-92 -52 -172 -94 -178 -94 -6 0 -45 20 -88 44 -42 23 -99 55 -127 71 -27 15
-69 38 -92 52 l-43 25 0 202 0 203 170 92 c94 51 170 96 170 100 0 4 -24 19
-52 34 -29 15 -71 38 -93 51 -81 47 -342 194 -405 228 l-65 36 -60 -38z"/>
</g>
</svg>
